<?xml version="1.0" encoding="UTF-8" standalone="no"?>
<svg
   xmlns:dc="http://purl.org/dc/elements/1.1/"
   xmlns:cc="http://creativecommons.org/ns#"
   xmlns:rdf="http://www.w3.org/1999/02/22-rdf-syntax-ns#"
   xmlns:svg="http://www.w3.org/2000/svg"
   xmlns="http://www.w3.org/2000/svg"
   viewBox="0 0 793.70135 793.70135"
   height="793.70135"
   width="793.70135"
   xml:space="preserve"
   id="svg2"
   version="1.1"><metadata
     id="metadata8"><rdf:RDF><cc:Work
         rdf:about=""><dc:format>image/svg+xml</dc:format><dc:type
           rdf:resource="http://purl.org/dc/dcmitype/StillImage" /></cc:Work></rdf:RDF></metadata><defs
     id="defs6"><clipPath
       id="clipPath34"
       clipPathUnits="userSpaceOnUse"><path
         id="path32"
         d="M 0,595.276 H 595.276 V 0 H 0 Z" /></clipPath></defs><g
     transform="matrix(1.3333333,0,0,-1.3333333,0,793.70133)"
     id="g10"><g
       transform="translate(165.0148,268.6591)"
       id="g12"><path
         id="path14"
         style="fill:#344627;fill-opacity:1;fill-rule:nonzero;stroke:none"
         d="m 0,0 h 16.526 v -26.329 h 5.1 V 0 H 38.109 V 5.056 H 0 Z" /></g><g
       transform="translate(165.0148,268.6591)"
       id="g16"><path
         id="path18"
         style="fill:none;stroke:#334526;stroke-width:0.25;stroke-linecap:butt;stroke-linejoin:miter;stroke-miterlimit:10;stroke-dasharray:none;stroke-opacity:1"
         d="m 0,0 h 16.526 v -26.329 h 5.1 V 0 H 38.109 V 5.056 H 0 Z" /></g><g
       transform="translate(240.0883,260.5724)"
       id="g20"><path
         id="path22"
         style="fill:#344627;fill-opacity:1;fill-rule:nonzero;stroke:none"
         d="m 0,0 h -27.953 v 13.143 h -5.1 v -31.385 h 5.1 V -5.099 H 0 V -18.242 H 5.056 V 13.143 H 0 Z" /></g><g
       transform="translate(240.0883,260.5724)"
       id="g24"><path
         id="path26"
         style="fill:none;stroke:#334526;stroke-width:0.25;stroke-linecap:butt;stroke-linejoin:miter;stroke-miterlimit:10;stroke-dasharray:none;stroke-opacity:1"
         d="m 0,0 h -27.953 v 13.143 h -5.1 v -31.385 h 5.1 V -5.099 H 0 V -18.242 H 5.056 V 13.143 H 0 Z" /></g><g
       id="g28"><g
         clip-path="url(#clipPath34)"
         id="g30"><g
           transform="translate(249.9237,266.0037)"
           id="g36"><path
             id="path38"
             style="fill:#344627;fill-opacity:1;fill-rule:nonzero;stroke:none"
             d="m 0,0 v -15.962 c 0,-4.252 3.459,-7.711 7.712,-7.711 h 29.399 v 5.099 H 7.712 c -1.441,0 -2.613,1.171 -2.613,2.612 v 5.431 h 32.012 v 5.1 H 5.099 V 0 c 0,1.464 1.172,2.655 2.613,2.655 H 37.111 V 7.712 H 7.712 C 3.459,7.712 0,4.253 0,0" /></g><g
           transform="translate(249.9237,266.0037)"
           id="g40"><path
             id="path42"
             style="fill:none;stroke:#334526;stroke-width:0.25;stroke-linecap:butt;stroke-linejoin:miter;stroke-miterlimit:10;stroke-dasharray:none;stroke-opacity:1"
             d="m 0,0 v -15.962 c 0,-4.252 3.459,-7.711 7.712,-7.711 h 29.399 v 5.099 H 7.712 c -1.441,0 -2.613,1.171 -2.613,2.612 v 5.431 h 32.012 v 5.1 H 5.099 V 0 c 0,1.464 1.172,2.655 2.613,2.655 H 37.111 V 7.712 H 7.712 C 3.459,7.712 0,4.253 0,0 Z" /></g><g
           transform="translate(300.4867,268.6591)"
           id="g44"><path
             id="path46"
             style="fill:#344627;fill-opacity:1;fill-rule:nonzero;stroke:none"
             d="m 0,0 h 16.526 v -26.329 h 5.1 V 0 H 38.109 V 5.056 H 0 Z" /></g><g
           transform="translate(300.4867,268.6591)"
           id="g48"><path
             id="path50"
             style="fill:none;stroke:#334526;stroke-width:0.25;stroke-linecap:butt;stroke-linejoin:miter;stroke-miterlimit:10;stroke-dasharray:none;stroke-opacity:1"
             d="m 0,0 h 16.526 v -26.329 h 5.1 V 0 H 38.109 V 5.056 H 0 Z" /></g><g
           transform="translate(378.1622,263.1848)"
           id="g52"><path
             id="path54"
             style="fill:#344627;fill-opacity:1;fill-rule:nonzero;stroke:none"
             d="M 0,0 C 0,-1.441 -1.172,-2.612 -2.612,-2.612 H -27.953 V 5.474 H -2.612 C -1.172,5.474 0,4.283 0,2.819 Z m -2.612,10.531 h -30.44 v -31.385 h 5.099 v 13.142 h 25.341 c 1.44,0 2.612,-1.171 2.612,-2.612 v -10.53 h 5.056 v 10.53 c 0,1.916 -0.696,3.741 -1.965,5.162 C 4.36,-3.74 5.056,-1.915 5.056,0 v 2.819 c 0,4.252 -3.44,7.712 -7.668,7.712" /></g><g
           transform="translate(378.1622,263.1848)"
           id="g56"><path
             id="path58"
             style="fill:none;stroke:#334526;stroke-width:0.25;stroke-linecap:butt;stroke-linejoin:miter;stroke-miterlimit:10;stroke-dasharray:none;stroke-opacity:1"
             d="M 0,0 C 0,-1.441 -1.172,-2.612 -2.612,-2.612 H -27.953 V 5.474 H -2.612 C -1.172,5.474 0,4.283 0,2.819 Z m -2.612,10.531 h -30.44 v -31.385 h 5.099 v 13.142 h 25.341 c 1.44,0 2.612,-1.171 2.612,-2.612 v -10.53 h 5.056 v 10.53 c 0,1.916 -0.696,3.741 -1.965,5.162 C 4.36,-3.74 5.056,-1.915 5.056,0 v 2.819 c 0,4.252 -3.44,7.712 -7.668,7.712 z" /></g><g
           transform="translate(421.2561,273.7153)"
           id="g60"><path
             id="path62"
             style="fill:#344627;fill-opacity:1;fill-rule:nonzero;stroke:none"
             d="M 0,0 -14.312,-15.088 -28.624,0 h -6.991 l 18.754,-19.809 v -11.576 h 5.099 v 11.576 L 6.99,0 Z" /></g><g
           transform="translate(421.2561,273.7153)"
           id="g64"><path
             id="path66"
             style="fill:none;stroke:#334526;stroke-width:0.25;stroke-linecap:butt;stroke-linejoin:miter;stroke-miterlimit:10;stroke-dasharray:none;stroke-opacity:1"
             d="M 0,0 -14.312,-15.088 -28.624,0 h -6.991 l 18.754,-19.809 v -11.576 h 5.099 v 11.576 L 6.99,0 Z" /></g><g
           transform="translate(429.8455,251.6212)"
           id="g68"><path
             id="path70"
             style="fill:#7caf00;fill-opacity:1;fill-rule:nonzero;stroke:none"
             d="m 0,0 c 2.192,-2.192 2.192,-5.746 0,-7.938 -2.192,-2.192 -5.746,-2.192 -7.938,0 -2.192,2.192 -2.192,5.746 0,7.938 2.192,2.192 5.746,2.192 7.938,0" /></g><g
           transform="translate(333.8818,311.3271)"
           id="g72"><path
             id="path74"
             style="fill:#7caf00;fill-opacity:1;fill-rule:nonzero;stroke:none"
             d="m 0,0 c -8.896,-10.478 -21.844,-16.488 -35.526,-16.488 -13.648,0 -26.576,5.987 -35.471,16.422 l -0.135,0.159 -1.14,-0.772 0.168,-0.199 c 9.16,-10.791 22.492,-16.98 36.578,-16.98 14.131,0 27.489,6.22 36.65,17.064 l 0.171,0.205 -1.162,0.744 z" /></g><g
           transform="translate(298.3561,389.4208)"
           id="g76"><path
             id="path78"
             style="fill:#344627;fill-opacity:1;fill-rule:nonzero;stroke:none"
             d="m 0,0 c -26.455,0 -47.976,-21.521 -47.976,-47.976 0,-2.534 0.208,-5.11 0.619,-7.657 l 0.031,-0.197 h 1.39 l -0.045,0.272 c -0.415,2.534 -0.626,5.084 -0.626,7.582 0,25.699 20.908,46.608 46.607,46.608 25.699,0 46.607,-20.909 46.607,-46.608 0,-2.501 -0.211,-5.052 -0.627,-7.582 l -0.046,-0.272 h 1.39 l 0.031,0.197 c 0.413,2.543 0.621,5.119 0.621,7.657 C 47.976,-21.521 26.454,0 0,0" /></g><g
           transform="translate(261.6519,333.8718)"
           id="g80"><path
             id="path82"
             style="fill:#344627;fill-opacity:1;fill-rule:nonzero;stroke:none"
             d="m 0,0 c -0.511,2.481 -0.77,5.028 -0.77,7.573 0,9.018 3.266,17.716 9.185,24.531 6.74,-6.363 10.61,-15.285 10.61,-24.531 0,-9.33 -3.931,-18.337 -10.786,-24.712 -1.104,-1.027 -2.277,-1.981 -3.508,-2.853 l -1.206,-0.816 c -0.341,-0.221 -0.684,-0.434 -1.033,-0.64 l -0.237,-0.143 0.221,-0.251 c 1.611,-1.874 3.379,-3.62 5.256,-5.193 l 0.133,-0.111 0.144,0.095 c 2.016,1.329 3.918,2.842 5.666,4.491 l 0.008,-0.007 0.145,0.139 0.197,0.188 -0.006,0.004 c 8.182,7.893 12.689,18.466 12.689,29.809 0,11.34 -4.504,21.911 -12.682,29.803 5.71,4.356 12.488,6.969 19.624,7.547 l 0.215,0.019 v 7.7 L 33.616,52.626 C 24.116,51.981 15.219,48.405 7.871,42.289 L 7.865,42.293 7.732,42.181 7.491,41.981 7.503,41.973 C 5.744,40.479 4.085,38.842 2.571,37.092 L 2.563,37.096 2.436,36.947 2.255,36.737 2.266,36.73 C -4.643,28.583 -8.453,18.244 -8.453,7.573 c 0,-2.558 0.219,-5.135 0.654,-7.661 l 0.032,-0.193 h 7.825 z" /></g><g
           transform="translate(332.7834,370.6089)"
           id="g84"><path
             id="path86"
             style="fill:#344627;fill-opacity:1;fill-rule:nonzero;stroke:none"
             d="M 0,0 -0.181,0.21 -0.308,0.359 -0.316,0.355 C -1.83,2.105 -3.489,3.742 -5.248,5.236 L -5.236,5.243 -5.477,5.444 -5.61,5.555 -5.616,5.552 c -7.343,6.11 -16.232,9.686 -25.724,10.335 l -0.25,0.017 V 8.203 l 0.215,-0.019 c 7.127,-0.58 13.897,-3.193 19.604,-7.545 -8.178,-7.892 -12.682,-18.463 -12.682,-29.803 0,-11.343 4.506,-21.916 12.689,-29.809 l -0.006,-0.004 0.198,-0.188 0.144,-0.139 0.008,0.007 c 1.748,-1.649 3.649,-3.162 5.666,-4.491 l 0.144,-0.095 0.133,0.111 c 1.898,1.591 3.68,3.352 5.296,5.234 l 0.176,0.203 -2.062,1.323 v -0.002 c -1.381,0.949 -2.693,1.998 -3.917,3.138 -6.855,6.375 -10.786,15.382 -10.786,24.712 0,9.246 3.87,18.167 10.611,24.531 5.918,-6.815 9.184,-15.513 9.184,-24.531 0,-2.545 -0.259,-5.092 -0.77,-7.573 l -0.058,-0.281 h 7.825 l 0.033,0.193 c 0.434,2.514 0.653,5.092 0.653,7.661 0,10.671 -3.81,21.01 -10.719,29.157 z" /></g><g
           transform="translate(281.177,308.1489)"
           id="g88"><path
             id="path90"
             style="fill:#7caf00;fill-opacity:1;fill-rule:nonzero;stroke:none"
             d="m 0,0 -0.118,-0.144 c -1.148,-1.378 -3.011,-3.401 -5.377,-5.225 l -0.276,-0.212 0.301,-0.175 c 6.851,-3.99 14.678,-6.101 22.638,-6.105 7.96,0.004 15.787,2.115 22.638,6.105 l 0.301,0.175 -0.276,0.212 c -2.366,1.824 -4.229,3.847 -5.376,5.225 L 34.336,0 34.17,-0.086 C 28.866,-2.799 23.147,-4.176 17.168,-4.178 11.189,-4.176 5.47,-2.799 0.166,-0.086 Z" /></g></g></g></g></svg>